<?xml version="1.0" standalone="no"?><!DOCTYPE svg PUBLIC "-//W3C//DTD SVG 1.1//EN" "http://www.w3.org/Graphics/SVG/1.1/DTD/svg11.dtd"><svg class="icon" width="32px" height="32.00px" viewBox="0 0 1024 1024" version="1.1" xmlns="http://www.w3.org/2000/svg"><path d="M625.194667 421.888l128.725333-58.965333L512 254.293333 270.08 362.922667l240.085333 108.16 1.834667 0.384c181.546667 0 329.045333 81.578667 329.045333 181.930666 0 100.48-147.498667 182.058667-329.045333 182.058667s-329.130667-81.621333-329.130667-182.058667v-4.138666H14.634667v4.138666c0 135.509333 223.061333 245.674667 497.365333 245.674667 274.218667 0 497.365333-110.165333 497.365333-245.674667 0-113.322667-163.968-203.690667-384.170666-231.509333zM512 407.210667L413.525333 362.922667 512 318.72l98.432 44.202667L512 407.210667z" fill="#0055B8" /><path d="M512 116.394667C237.781333 116.394667 14.634667 226.474667 14.634667 362.026667c0 113.237333 163.84 203.776 384.128 231.509333L270.08 652.501333 512 761.088l241.877333-108.544-240.213333-108.202667L512 544c-181.546667 0-329.130667-81.578667-329.130667-181.930667 0-100.266667 147.626667-182.016 329.130667-182.016 181.546667 0 329.045333 81.749333 329.045333 181.973334v4.181333h168.32v-4.138667c0-135.552-223.146667-245.632-497.365333-245.632v-0.042666z m0 491.818666l98.432 44.330667L512 696.746667l-98.474667-44.202667L512 608.213333z" fill="#009944" /></svg>