<?xml version="1.0" standalone="no"?><!DOCTYPE svg PUBLIC "-//W3C//DTD SVG 1.1//EN" "http://www.w3.org/Graphics/SVG/1.1/DTD/svg11.dtd"><svg class="icon" width="32px" height="32.00px" viewBox="0 0 1024 1024" version="1.1" xmlns="http://www.w3.org/2000/svg"><path d="M380.970667 988.970667c-26.965333 15.872-51.2 25.472-76.885334 25.472a126.293333 126.293333 0 0 1-124.416-119.296l128.725334-76.714667 200.448 89.856-127.872 80.64z" fill="#82B9D9" /><path d="M457.557333 659.2l-95.829333-42.154667c-42.666667-19.072-82.944-35.072-82.944-82.048-1.024-18.56 5.888-36.693333 19.029333-49.834666l202.410667 89.173333-50.048 28.928c-13.824 8.533333-23.509333 15.914667-23.509333 26.624s13.141333 21.248 30.976 29.312h-0.085334z" fill="#B1D6A1" /><path d="M551.424 217.6l-98.005333 59.52c-8.874667 5.290667-20.736 13.824-20.736 26.752 0 14.933333 22.741333 26.282667 42.837333 35.84L352.981333 285.653333c-36.010667-16.042667-72.234667-34.005333-72.234666-77.653333-0.213333-16.384 4.650667-32.426667 13.824-45.952L559.872 0a120.234667 120.234667 0 0 1 62.72 103.68c0 52.010667-26.453333 87.04-71.168 113.92z" fill="#82B9D9" /><path d="M760.32 409.301333l-24.32 13.824-202.752-89.856 235.392-141.44c31.786667 18.389333 62.976 54.485333 62.976 103.338667 0 52.352-25.728 88.405333-71.253333 114.133333z" fill="#B1D6A1" /><path d="M588.970667 581.376l119.936 52.736c45.013333 20.053333 58.752 43.690667 58.752 73.557333-0.853333 17.92-9.301333 34.56-23.296 45.824l-201.642667-89.856 34.005333-19.157333c29.013333-15.402667 38.442667-25.386667 38.442667-36.138667 0-10.794667-6.912-18.261333-26.282667-27.178666l0.085334 0.213333z" fill="#82B9D9" /><path d="M802.773333 1024c-51.072-39.253333-105.472-65.877333-171.648-95.872l-305.664-135.253333c-76.672-34.261333-127.829333-79.872-127.829333-156.885334 0-74.666667 36.010667-110.592 82.944-140.458666l16.938667-10.666667c-13.141333 13.141333-20.053333 31.274667-18.986667 49.834667 0 47.018667 40.448 62.976 82.944 82.048l355.669333 156.8c62.208 26.538667 118.570667 72.234667 118.570667 150.016 0.256 43.093333-16 81.28-32.938667 100.437333z" fill="#00A439" /><path d="M766.549333 739.669333l-22.186666 13.824c13.952-11.221333 22.442667-27.818667 23.296-45.653333 0-29.866667-13.824-53.546667-58.752-73.6l-380.202667-167.424c-76.714667-33.92-124.416-77.781333-124.416-154.197333-0.298667-70.656 34.901333-116.565333 90.282667-150.528a80.469333 80.469333 0 0 0-13.824 45.994666c0 43.52 36.138667 61.568 72.234666 77.568l369.706667 163.072c67.157333 29.653333 121.642667 74.581333 121.642667 156.629334 0 64-29.866667 104.405333-77.781334 134.314666z" fill="#0071B0" /></svg>