<?xml version="1.0" standalone="no"?><!DOCTYPE svg PUBLIC "-//W3C//DTD SVG 1.1//EN" "http://www.w3.org/Graphics/SVG/1.1/DTD/svg11.dtd"><svg class="icon" width="32px" height="32.00px" viewBox="0 0 1024 1024" version="1.1" xmlns="http://www.w3.org/2000/svg"><path d="M0 278.101333h261.546667c8.746667 4.906667 16.64 9.813333 23.253333 15.146667H237.141333v13.653333h64.213334c4.906667 4.906667 9.813333 9.813333 13.653333 15.146667H237.226667v12.586667h86.528c2.986667 4.906667 5.333333 9.813333 7.253333 15.146666H70.101333v12.586667h264.96c1.066667 4.906667 1.92 9.685333 1.92 15.018667H70.101333v12.586666h266.88c0 4.906667-1.109333 10.24-1.92 15.061334h-264.96v12.586666h261.12c-1.493333 4.906667-3.84 10.24-6.4 15.018667h-254.72v12.586667h247.466667c-3.413333 5.333333-6.826667 10.24-11.093333 15.146666h-236.373334v12.586667h224.597334c-4.864 5.333333-10.666667 10.24-16.512 15.146667H209.066667v12.586666h86.101333c6.272 4.906667 12.117333 9.813333 17.066667 15.146667H209.066667v12.714667h114.346666c3.84 4.906667 7.253333 10.24 10.666667 15.018666H70.058667v12.586667h270.933333c2.346667 4.906667 4.522667 10.24 6.4 15.061333h-277.333333v12.586667H351.146667c1.066667 5.333333 1.92 10.24 2.346666 15.146667H70.058667v12.586666H354.56c0 5.333333 0 10.24-0.426667 15.146667H70.058667v13.098667h282.026666c-1.493333 4.906667-2.346667 9.813333-4.437333 14.506666H70.101333v13.226667h272.298667c-2.346667 4.906667-5.333333 9.813333-8.746667 15.061333H237.312v12.586667h87.04c-4.48 4.906667-9.173333 10.24-15.146667 15.018667H237.226667v12.586666h55.893333c-7.68 5.333333-16 10.24-25.386667 15.146667H0V278.101333z" fill="#E7A602" /><path d="M558.72 564.48v122.538667c0 12.629333 1.066667 21.333333 3.413333 26.24 1.92 4.266667 5.333333 7.68 9.813334 9.216v8.746666H507.733333a109.909333 109.909333 0 0 1-5.76-26.666666c-9.173333 10.24-17.92 17.493333-25.813333 21.973333-4.906667 2.346667-10.24 4.906667-15.573333 6.4v-39.466667a58.453333 58.453333 0 0 0 24.32-10.666666 40.533333 40.533333 0 0 0 15.573333-32.64v-28.714667c-2.986667 1.92-6.826667 4.48-13.226667 6.4s-15.146667 3.84-26.666666 5.76v-39.338667l19.413333-2.986666c6.4-1.066667 11.093333-2.346667 13.653333-4.266667 4.266667-3.413333 6.826667-7.893333 6.826667-13.653333 0-11.093333-4.906667-18.474667-13.226667-22.826667-5.76-2.346667-14.08-3.413333-25.813333-3.413333h-0.938667v-47.701334h8.32c22.826667 0 41.386667 3.413333 56.405334 11.093334 22.4 11.221333 33.493333 29.141333 33.493333 53.973333z m-98.261333 168.192c-9.813333 2.901333-20.053333 4.48-31.146667 4.48-18.944 0-34.986667-4.906667-47.104-15.146667-14.506667-12.16-21.888-28.672-21.888-50.517333 0-21.333333 5.76-37.973333 17.92-50.133333 11.733333-12.202667 27.733333-19.456 48.085333-22.442667l34.133334-4.906667v39.381334c-0.512 0.426667-1.024 0.426667-1.450667 0.426666-12.586667 1.92-21.888 4.906667-27.221333 8.32-7.893333 5.333333-11.733333 14.08-11.733334 25.386667 0 9.173333 2.986667 16.512 9.173334 21.333333a28.586667 28.586667 0 0 0 17.92 5.76c4.906667 0 8.746667-0.426667 13.226666-1.493333v39.552h0.128z m0-185.685333c-12.544 0-21.930667 3.413333-27.733334 10.24a39.125333 39.125333 0 0 0-7.68 20.906666H367.658667c2.986667-31.146667 15.146667-53.034667 35.541333-65.194666 14.08-8.32 33.066667-12.586667 57.386667-13.653334l-0.085334 47.701334z m324.394666 27.733333v156.586667h-59.818666v-137.173334c0-13.226667-1.493333-22.4-4.906667-28.8-5.802667-10.666667-17.066667-16-33.493333-16-13.653333 0-24.746667 4.266667-33.536 13.653334-8.746667 8.746667-13.226667 21.845333-13.226667 38.4v129.792h-59.818667v-226.133334h56.832v33.109334c9.813333-14.506667 20.053333-24.32 31.146667-30.08 10.666667-5.76 23.296-8.746667 37.973333-8.746667 22.826667 0 41.813333 6.4 56.448 19.413333 15.146667 13.226667 22.4 32.085333 22.4 55.978667z m84.992 84.992v71.466667h-59.733333V425.898667h59.733333v165.333333l75.008-86.186667h72.96l-79.786666 87.594667 81.706666 138.538667h-70.912l-53.973333-96.725334-24.96 25.258667z" fill="#6D1687" /></svg>