<?xml version="1.0" standalone="no"?><!DOCTYPE svg PUBLIC "-//W3C//DTD SVG 1.1//EN" "http://www.w3.org/Graphics/SVG/1.1/DTD/svg11.dtd"><svg class="icon" width="32px" height="32.00px" viewBox="0 0 1024 1024" version="1.1" xmlns="http://www.w3.org/2000/svg"><path d="M457.386667 361.088l5.290666-5.76 5.461334-5.632 5.632-5.632 5.76-5.461333 5.802666-5.290667 12.16-9.984 6.229334-4.864 6.4-4.693333 6.570666-4.352 6.698667-4.352 6.741333-4.266667 6.826667-3.84 7.082667-3.797333 7.04-3.584 7.338666-3.413334 7.168-3.285333 7.509334-3.114667 7.466666-2.816 7.68-2.688 7.637334-2.474666 7.808-2.346667 7.808-2.048 7.978666-1.834667 7.978667-1.706666 8.106667-1.450667 8.277333-1.237333 8.106667-1.066667 8.448-0.810667 8.277333-0.597333 8.448-0.341333h16.981333l8.448 0.341333 8.448 0.597333 8.277334 0.810667 8.277333 1.066667 8.106667 1.28 8.106666 1.365333 7.978667 1.706667 7.978667 1.877333 7.808 2.048 7.808 2.346667 7.68 2.474666 7.637333 2.688 7.509333 2.816 7.466667 3.114667 7.210667 3.285333 7.338666 3.413334 7.04 3.584 6.997334 3.754666 6.869333 3.925334 6.741333 4.224 6.698667 4.352 6.570667 4.352 6.4 4.693333 6.229333 4.864 12.202667 9.984 5.76 5.290667 5.76 5.461333 5.632 5.632 5.461333 5.632 5.333333 5.76h107.605334l-6.570667-10.453333-6.869333-10.282667-7.168-10.154667-7.68-9.813333-7.808-9.728-8.106667-9.216-8.448-9.216-8.533333-8.746667-9.088-8.576-9.216-8.277333-9.514667-7.978667-9.685333-7.637333-10.026667-7.338667-10.282667-7.04-10.453333-6.698666-10.666667-6.4-10.88-6.101334-11.093333-5.76-11.392-5.333333-11.392-4.992-11.733333-4.693333-11.861334-4.352-12.16-3.925334-12.202666-3.413333-12.373334-3.285333-12.629333-2.645334-12.629333-2.346666-12.8-2.048-12.970667-1.408-13.098667-1.109334-13.141333-0.768-13.226667-0.128-13.482666 0.128-13.098667 0.768-13.141333 1.109334-12.928 1.408-12.8 2.048-12.672 2.346666-12.629334 2.645334-12.373333 3.285333-12.16 3.413333-12.032 3.925334-12.032 4.352-11.52 4.693333-11.605333 4.992-11.392 5.333333-11.093334 5.76-10.922666 6.101334-10.624 6.4-10.453334 6.698666-10.325333 7.04-9.984 7.338667-9.685333 7.68-9.514667 7.936-9.216 8.277333-8.917333 8.576-8.746667 8.746667-8.405333 9.216-8.106667 9.216-7.850667 9.685333-7.637333 9.813334-7.168 10.197333-6.869333 10.282667-6.570667 10.453333h107.605333-0.085333z m294.826666 388.224h-2.816l-2.816-0.170667-2.645333-0.128-5.290667-0.938666-2.517333-0.768-2.304-0.938667-2.218667-1.28-2.176-1.536-0.938666-0.810667-0.768-1.066666-0.938667-0.938667-0.810667-1.109333-0.597333-1.28-0.810667-1.365334-0.597333-1.408-0.426667-1.408-0.512-1.706666-0.298666-1.706667-0.341334-1.92-0.128-1.877333-0.170666-2.005334-0.128-2.176h-0.170667v-224.085333h75.776V417.493333h-75.776V293.504l-93.098667 41.514667v82.474666H552.96v81.194667h75.733333v253.269333h0.170667l0.170667 2.645334 0.298666 2.816 0.298667 2.986666 0.469333 2.816 0.469334 2.986667 1.578666 5.888 0.938667 2.986667 0.938667 2.816 2.474666 5.930666 3.157334 5.589334 3.712 5.333333 2.218666 2.645333 2.346667 2.474667 2.474667 2.517333 2.645333 2.346667 2.986667 2.133333 3.114666 2.048 3.285334 2.048 3.584 1.706667 3.754666 1.706667 3.882667 1.408 4.266667 1.408 4.522666 1.109333 4.693334 0.938667 4.992 0.768 5.290666 0.64 5.461334 0.298666 5.76 0.128 33.621333 0.512h9.685333l4.522667-0.170666 4.352-0.341334 4.053333-0.298666 4.096-0.597334 3.712-0.64 3.754667-1.066666 3.413333-1.109334 3.456-1.408 3.114667-1.706666 3.114667-1.877334 2.816-2.346666 2.816-2.474667 2.688-2.986667 2.474666-3.285333 2.346667-3.712 2.346667-4.096 2.005333-4.693333 2.176-4.992 1.877333-5.461334 1.877334-5.973333 1.706666-6.4 1.749334-6.997333 1.578666-7.68 1.408-8.106667-29.696-13.866667-1.066666 0.938667-2.688 2.176-4.224 3.285333-5.12 3.584-5.973334 3.754667-3.114666 1.706667-3.114667 1.408-3.285333 1.28-2.986667 1.066666-3.114667 0.64-1.408 0.128h-1.408z m119.466667 71.68h93.098667V419.626667H871.68v401.28z m-463.530667 0h93.098667V419.626667H408.149333v401.28z m-195.498666-325.76l7.338666 0.298667 3.754667 0.341333 3.584 0.298667 3.584 0.469333 3.584 0.64 3.584 0.768 6.912 1.578667 6.826667 2.133333 3.328 1.109333 6.528 2.816 3.157333 1.408 6.229333 3.157334 2.986667 1.834666 3.114667 1.706667 2.773333 1.92 2.986667 2.005333 2.645333 2.048 2.816 2.133334 2.645333 2.218666 2.688 2.346667 4.992 4.693333 2.346667 2.474667 2.346667 2.645333 2.304 2.517334 2.218666 2.816 2.005334 2.645333 68.096-60.117333-3.754667-4.352-7.808-8.746667-8.106667-8.106667-4.352-4.096-8.746666-7.466666-4.693334-3.584-4.693333-3.413334-4.693333-3.328-4.992-3.285333-4.864-3.114667-10.282667-5.589333-5.162667-2.688-5.290666-2.645333-5.504-2.346667-5.461334-2.133333-5.461333-2.048-5.632-2.048-5.76-1.706667-11.562667-3.114667-5.973333-1.28-5.930667-1.066666-5.930666-0.938667-6.101334-0.810667-6.058666-0.597333-6.101334-0.469333-6.272-0.341334-6.229333-0.128-10.922667 0.298667-10.752 0.768-10.666666 1.408-10.24 1.877333-10.325334 2.346667-10.026666 2.816-9.813334 3.413333-9.685333 3.754667-9.386667 4.266667-9.045333 4.693333-8.917333 5.12-8.576 5.461333-8.277334 5.930667-8.106666 6.229333-7.68 6.741334-7.338667 6.826666-6.997333 7.509334-6.570667 7.68-6.4 7.936-5.802667 8.277333-5.632 8.618667-4.992 8.874666-4.693333 9.045334-4.224 9.386666-3.882667 9.685334-3.285333 9.813333-2.816 10.026667-2.346667 10.282666-1.877333 10.453334-1.408 10.666666-0.768 10.581334-0.298667 10.922666 0.298667 10.922667 0.768 10.794667 1.408 10.624 1.877333 10.282666 2.346667 10.325334 2.816 9.984 3.285333 9.813333 3.882667 9.685333 4.266667 9.386667 4.650666 9.045333 4.992 8.917334 5.632 8.533333 5.76 8.277333 6.4 8.106667 6.613334 7.68 6.997333 7.338667 7.338667 7.04 7.68 6.528 8.106666 6.4 8.277334 5.802666 8.576 5.589334 8.917333 5.034666 9.045333 4.693334 9.386667 4.181333 9.685333 3.925333 9.813334 3.285334 10.026666 2.816 10.282667 2.304 10.325333 1.877333 10.624 1.408 10.752 0.810667 10.922667 0.298666h5.973333l5.930667-0.298666 5.930667-0.512 5.76-0.426667 5.802666-0.810667 5.76-0.938666 5.632-0.938667 11.221334-2.474667 10.922666-3.114666 5.333334-1.706667 5.461333-1.92 5.12-2.005333 5.333333-2.176 5.034667-2.346667 5.12-2.474667 4.864-2.517333 4.992-2.645333 4.821333-2.816 4.693334-2.986667 4.693333-3.114667 4.522667-3.114666 4.522666-3.285334 4.394667-3.413333 4.224-3.413333 4.224-3.626667 4.053333-3.754667 4.053334-3.84 3.882666-3.925333 7.509334-8.106667-67.797334-60.16-2.133333 2.517334-2.218667 2.346666-4.522666 4.522667-2.346667 2.005333-2.517333 2.218667-2.346667 2.005333-2.474667 2.048-5.290666 3.754667-5.290667 3.413333-8.448 4.693334-2.986667 1.408-8.874666 3.754666-6.229334 2.133334-3.114666 0.981333-3.157334 0.768-3.285333 0.810667-9.813333 1.834666-3.285334 0.341334-3.413333 0.341333-3.285333 0.298667-3.413334 0.128h-3.413333l-6.272-0.128-6.101333-0.426667-6.101334-0.853333-5.930666-1.066667-5.973334-1.28-5.76-1.706667-5.589333-1.877333-5.504-2.133333-5.290667-2.389334-5.290666-2.773333-5.034667-2.816-4.992-3.157333-4.693333-3.413334-4.693334-3.584-4.352-3.925333-4.224-3.84-3.882666-4.266667-3.882667-4.352-3.626667-4.693333-3.285333-4.693333-3.285333-4.992-2.816-4.992-2.645334-5.162667-2.474666-5.461333-2.176-5.504-1.877334-5.589334-1.706666-5.76-1.28-5.802666-1.066667-6.101334-0.810667-5.930666-0.426666-6.229334-0.170667-6.229333 0.128-6.229333 0.469333-6.101334 0.810667-6.101333 1.066667-5.973333 1.28-5.888 1.706666-5.802667 1.877334-5.589333 2.133333-5.504 2.56-5.290667 2.602667-5.290667 2.816-4.992 3.285333-5.034666 3.285333-4.693334 3.626667-4.522666 3.84-4.352 3.925333-4.224 4.224-4.053334 4.352-3.754666 4.693334-3.754667 4.693333-3.285333 4.992-3.114667 5.034667-2.986667 5.290666-2.602666 5.290667-2.517334 5.504-2.176 5.589333-1.877333 5.802667-1.578667 5.930667-1.408 5.973333-1.066666 6.058667-0.768 6.101333-0.469334 6.229333-0.170666h-0.042666z" fill="#2F2267" /><path d="M457.386667 361.088l5.290666-5.76 5.461334-5.632 5.632-5.632 5.76-5.461333 5.802666-5.290667 12.16-9.984 6.229334-4.864 6.4-4.693333 6.570666-4.352 6.698667-4.352 6.741333-4.266667 6.826667-3.84 7.082667-3.797333 7.04-3.584 7.338666-3.413334 7.168-3.285333 7.509334-3.114667 7.466666-2.816 7.68-2.688 7.637334-2.474666 7.808-2.346667 7.808-2.048 7.978666-1.834667 7.978667-1.706666 8.106667-1.450667 8.277333-1.237333 8.106667-1.066667 8.448-0.810667 8.277333-0.597333 8.448-0.341333h16.981333l8.448 0.341333 8.448 0.597333 8.277334 0.810667 8.277333 1.066667 8.106667 1.28 8.106666 1.365333 7.978667 1.706667 7.978667 1.877333 7.808 2.048 7.808 2.346667 7.68 2.474666 7.637333 2.688 7.509333 2.816 7.466667 3.114667 7.210667 3.285333 7.338666 3.413334 7.04 3.584 6.997334 3.754666 6.869333 3.925334 6.741333 4.224 6.698667 4.352 6.570667 4.352 6.4 4.693333 6.229333 4.864 12.202667 9.984 5.76 5.290667 5.76 5.461333 5.632 5.632 5.461333 5.632 5.333333 5.76h107.605334l-6.570667-10.453333-6.869333-10.282667-7.168-10.154667-7.68-9.813333-7.808-9.728-8.106667-9.216-8.448-9.216-8.533333-8.746667-9.088-8.576-9.216-8.277333-9.514667-7.978667-9.685333-7.637333-10.026667-7.338667-10.282667-7.04-10.453333-6.698666-10.666667-6.4-10.88-6.101334-11.093333-5.76-11.392-5.333333-11.392-4.992-11.733333-4.693333-11.861334-4.352-12.16-3.925334-12.202666-3.413333-12.373334-3.285333-12.629333-2.645334-12.629333-2.346666-12.8-2.048-12.970667-1.408-13.098667-1.109334-13.141333-0.768-13.226667-0.128-13.482666 0.128-13.098667 0.768-13.141333 1.109334-12.928 1.408-12.8 2.048-12.672 2.346666-12.629334 2.645334-12.373333 3.285333-12.16 3.413333-12.032 3.925334-12.032 4.352-11.52 4.693333-11.605333 4.992-11.392 5.333333-11.093334 5.76-10.922666 6.101334-10.624 6.4-10.453334 6.698666-10.325333 7.04-9.984 7.338667-9.685333 7.68-9.514667 7.936-9.216 8.277333-8.917333 8.576-8.746667 8.746667-8.405333 9.216-8.106667 9.216-7.850667 9.685333-7.637333 9.813334-7.168 10.197333-6.869333 10.282667-6.570667 10.453333h107.605333-0.085333z" fill="#D13433" /></svg>