<?xml version="1.0" standalone="no"?><!DOCTYPE svg PUBLIC "-//W3C//DTD SVG 1.1//EN" "http://www.w3.org/Graphics/SVG/1.1/DTD/svg11.dtd"><svg class="icon" width="32px" height="32.00px" viewBox="0 0 1024 1024" version="1.1" xmlns="http://www.w3.org/2000/svg"><path d="M512 512m-512 0a512 512 0 1 0 1024 0 512 512 0 1 0-1024 0Z" fill="#FFE6D1" /><path d="M512 345.898667c-24.234667 0-43.882667-19.221333-43.882667-42.965334 0-23.744 19.648-42.965333 43.882667-42.965333s43.882667 19.221333 43.882667 42.965333c0 23.744-19.648 42.965333-43.882667 42.965334z m1.429333 418.133333a37.973333 37.973333 0 0 1-37.994666-37.973333v-0.426667l2.88-268.181333a35.114667 35.114667 0 0 1 70.229333 0l2.88 268.181333a37.973333 37.973333 0 0 1-37.589333 38.4h-0.426667z" fill="#F36D00" /></svg>