<?xml version="1.0" standalone="no"?><!DOCTYPE svg PUBLIC "-//W3C//DTD SVG 1.1//EN" "http://www.w3.org/Graphics/SVG/1.1/DTD/svg11.dtd"><svg class="icon" width="32px" height="31.36px" viewBox="0 0 1045 1024" version="1.1" xmlns="http://www.w3.org/2000/svg"><path d="M522.666667 512m-512 0a512 512 0 1 0 1024 0 512 512 0 1 0-1024 0Z" fill="#FFE5E0" /><path d="M478.784 721.066667c0-23.744 19.648-42.965333 43.882667-42.965334s43.882667 19.221333 43.882666 42.965334c0 23.744-19.648 42.965333-43.882666 42.965333s-43.882667-19.221333-43.882667-42.965333zM559.232 298.368l-2.88 268.181333a35.114667 35.114667 0 0 1-70.229333 0l-2.88-268.181333a37.973333 37.973333 0 1 1 75.989333 0z" fill="#D92400" /></svg>