<?xml version="1.0" standalone="no"?><!DOCTYPE svg PUBLIC "-//W3C//DTD SVG 1.1//EN" "http://www.w3.org/Graphics/SVG/1.1/DTD/svg11.dtd"><svg class="icon" width="32px" height="13.78px" viewBox="0 0 2378 1024" version="1.1" xmlns="http://www.w3.org/2000/svg"><path d="M1226.256516 711.085419h80.268387v-31.777032h-80.268387v31.777032z m-136.026839 0h80.268388v-31.777032h-80.268388v31.777032z m136.026839-67.15458h80.268387v-28.209549h-80.268387v28.209549z m-136.026839 0h80.268388v-28.209549h-80.268388v28.209549z m-48.887742 114.489806v-156.473806c0-21.669161 17.176774-39.143226 38.31742-39.143226h273.70529c3.072 0 5.516387 2.444387 5.516387 5.582452v156.440774c0 21.702194-17.176774 39.242323-38.317419 39.242322h-273.70529a5.582452 5.582452 0 0 1-5.516388-5.615484z m-94.208-182.99871c0-3.105032 2.609548-5.615484 5.582452-5.615483h44.725678a5.615484 5.615484 0 0 1 5.582451 5.615483v160.933162c0 15.293935-12.552258 27.714065-27.94529 27.714064h-22.362839a5.615484 5.615484 0 0 1-5.582452-5.615484v-182.998709z m0-127.009032c0-3.138065 2.609548-5.747613 5.582452-5.747613h44.725678c3.038968 0 5.582452 2.642581 5.582451 5.747613v50.803613c0 15.591226-12.552258 28.242581-27.94529 28.242581h-22.362839a5.615484 5.615484 0 0 1-5.582452-5.747613v-73.331613z m0-123.540645c0-3.138065 2.609548-5.747613 5.582452-5.747613h44.725678c3.038968 0 5.582452 2.609548 5.582451 5.714581v50.836645c0 15.591226-12.552258 28.209548-27.94529 28.209548h-22.362839a5.615484 5.615484 0 0 1-5.582452-5.71458v-73.331613z m278.594065 100.946581v-67.022452h101.07871a24.774194 24.774194 0 0 0 24.576-25.104516v-19.621161a5.41729 5.41729 0 0 0-5.351226-5.483355H1050.756129a5.549419 5.549419 0 0 0-5.516387 5.483355v39.143225a5.615484 5.615484 0 0 0 5.516387 5.615484h120.270452v66.98942H1130.363871l-14.03871-39.440516a8.423226 8.423226 0 0 0-7.366193-5.219097h-47.236129c-3.072 0-4.624516 2.312258-3.600516 5.219097l14.071742 39.440516h-32.404646a5.615484 5.615484 0 0 0-5.41729 5.549419v39.110194c0 3.105032 2.444387 5.549419 5.41729 5.549419h31.380646l-23.948388 67.385806c-1.057032 2.906839 0.594581 5.219097 3.567484 5.219097h47.236129a8.258065 8.258065 0 0 0 7.267097-5.219097l24.113548-67.385806h41.653678v67.088516c0 3.038968 2.378323 5.516387 5.41729 5.516387h43.767742c2.972903 0 5.483355-2.477419 5.483355-5.516387v-67.055484h36.797935l23.915355 67.385807a8.522323 8.522323 0 0 0 7.432258 5.186064h47.170065c2.972903 0 4.624516-2.312258 3.633548-5.219097l-24.047484-67.385806h17.077678c13.675355 0 24.675097-11.230968 24.675097-25.104516v-19.555097a5.549419 5.549419 0 0 0-5.450323-5.549419H1319.63871l14.038709-39.440516c1.057032-2.906839-0.594581-5.219097-3.567484-5.219097h-47.236129c-2.972903 0-6.309161 2.312258-7.366193 5.219097l-14.03871 39.440516h-35.740903z m394.801548 263.134967V369.630968a5.549419 5.549419 0 0 0-5.483354-5.54942h-60.482065V314.136774a5.450323 5.450323 0 0 0-5.483355-5.549419H1510.565161a5.516387 5.516387 0 0 0-5.516387 5.549419v49.944774h-41.224258a24.906323 24.906323 0 0 0-24.212645 19.753291 6.573419 6.573419 0 0 0-0.528516 2.444387v322.295742c0 2.972903 2.444387 5.483355 5.483355 5.483355h19.257806a24.939355 24.939355 0 0 0 24.741161-25.104517v-274.894451h16.516129V758.420645c0 3.138065 2.411355 5.648516 5.483355 5.648516h19.224774c13.60929 0 24.741161-11.230968 24.741162-25.038451v-324.971355h16.516129v294.515613c0 2.972903 2.444387 5.483355 5.483355 5.483355h19.224774a24.939355 24.939355 0 0 0 24.774193-25.104517zM1701.888 313.806452a8.423226 8.423226 0 0 1 7.366194-5.186065h46.938838c2.972903 0 4.624516 2.312258 3.567484 5.186065l-13.972645 39.242322h124.003097c2.972903 0 5.41729 2.510452 5.41729 5.483355v366.724129c0 21.371871-16.945548 38.845935-38.020129 38.845936h-190.265806a5.549419 5.549419 0 0 1-5.417291-5.582452V391.861677c0-21.470968 17.011613-38.845935 38.020129-38.845935h8.390194l13.972645-39.242323z m124.531613 245.462709a32.305548 32.305548 0 0 1-2.77471 0.165162h-133.351226v155.185548h136.092904V559.236129z m-136.092903-49.383226h136.092903v-105.967483h-136.092903v105.967483z m327.97729-60.052645h80.268387v-45.914838H2018.270968v45.914838z m0 95.331097h80.268387v-49.482322H2018.270968v49.482322z m226.667355-109.204645h127.174193c3.072 0 5.516387 2.444387 5.516387 5.549419v19.489033a24.906323 24.906323 0 0 1-24.741161 25.038451h-2.741677v253.027097a24.939355 24.939355 0 0 1-24.774194 25.038452h-19.290838a5.549419 5.549419 0 0 1-5.417291-5.582452v-272.516129h-55.725419v250.318452a27.681032 27.681032 0 0 1-27.482839 27.780129h-15.756387a5.549419 5.549419 0 0 1-5.483355-5.582452V358.069677c0-21.470968 17.209806-38.945032 38.482581-38.945032h137.414193c3.072 0 5.516387 2.543484 5.516387 5.582452v16.417032a27.681032 27.681032 0 0 1-27.482838 27.780129h-105.207742v67.022452z m-226.667355 208.004129h80.268387v-45.848774H2018.270968v45.848774z m68.508903 47.863742h-56.782451l-23.783226 66.989419a8.291097 8.291097 0 0 1-7.168 5.285162h-46.674581c-3.038968 0-4.624516-2.378323-3.633548-5.285162l23.783226-66.989419h-25.566968a5.41729 5.41729 0 0 1-5.41729-5.516387v-38.912c0-3.072 2.444387-5.516387 5.41729-5.516387h21.768258V402.993548h-21.80129a5.483355 5.483355 0 0 1-5.384258-5.549419v-38.945032c0-3.038968 2.444387-5.483355 5.41729-5.483355h21.768258V314.136774c0-3.105032 2.378323-5.549419 5.351226-5.549419h38.119226c2.972903 0 5.41729 2.444387 5.41729 5.549419v38.878968h81.589677V314.136774c0-3.105032 2.34529-5.549419 5.417291-5.549419h38.020129c2.972903 0 5.41729 2.444387 5.41729 5.549419v38.878968h21.80129c3.005935 0 5.384258 2.444387 5.384258 5.483355v19.489032a24.774194 24.774194 0 0 1-24.443871 25.005419h-2.741677v238.856258h21.80129c3.005935 0 5.384258 2.444387 5.384258 5.516388v19.456a24.708129 24.708129 0 0 1-24.443871 24.972387h-6.507354l23.684129 66.989419c1.024 2.906839-0.594581 5.285161-3.567484 5.285161h-46.641549a8.390194 8.390194 0 0 1-7.267096-5.285161l-23.717162-66.989419z" fill="#707070" /><path d="M7.630452 377.856c0-51.728516 41.389419-93.613419 92.490322-93.613419 51.034839 0 92.424258 41.884903 92.424258 93.613419v292.996129c0 51.728516-41.389419 93.613419-92.424258 93.613419-51.100903 0-92.490323-41.884903-92.490322-93.613419v-292.996129zM600.757677 377.856c0-51.728516 41.356387-93.613419 92.490323-93.613419 51.034839 0 92.424258 41.884903 92.424258 93.613419v292.996129c0 51.728516-41.389419 93.613419-92.424258 93.613419-51.034839 0-92.490323-41.884903-92.490323-93.613419v-292.996129zM98.370065 217.187097c53.908645 0 97.676387-44.263226 97.676387-98.898581C196.046452 63.686194 152.27871 19.422968 98.370065 19.422968 44.32929 19.422968 0.660645 63.686194 0.660645 118.255484c0 54.602323 43.668645 98.898581 97.70942 98.898581M304.194065 377.856c0-51.728516 41.389419-93.613419 92.490322-93.613419 51.034839 0 92.424258 41.884903 92.424258 93.613419v533.041548c0 51.794581-41.389419 93.679484-92.424258 93.679484-51.100903 0-92.490323-41.884903-92.490322-93.679484V377.889032z" fill="#2689FB" /></svg>